<?xml version="1.0" encoding="UTF-8" standalone="no"?>
<!DOCTYPE svg PUBLIC "-//W3C//DTD SVG 1.1//EN"
 "http://www.w3.org/Graphics/SVG/1.1/DTD/svg11.dtd">
<!-- Generated by graphviz version 7.0.4 (20221203.1631)
 -->
<!-- Title: StateDiagram Pages: 1 -->
<svg width="526pt" height="227pt"
 viewBox="0.00 0.00 526.08 227.45" xmlns="http://www.w3.org/2000/svg" xmlns:xlink="http://www.w3.org/1999/xlink">
<g id="graph0" class="graph" transform="scale(1 1) rotate(0) translate(4 223.45)">
<title>StateDiagram</title>
<polygon fill="white" stroke="none" points="-4,4 -4,-223.45 522.08,-223.45 522.08,4 -4,4"/>
<!-- Start -->
<g id="node1" class="node">
<title>Start</title>
<ellipse fill="black" stroke="black" cx="1.8" cy="-104.45" rx="1.8" ry="1.8"/>
</g>
<!-- NotMember -->
<g id="node2" class="node">
<title>NotMember</title>
<ellipse fill="none" stroke="black" cx="95.2" cy="-104.45" rx="54.69" ry="18"/>
<text text-anchor="middle" x="95.2" y="-100.75" font-family="Times,serif" font-size="14.00">NotMember</text>
</g>
<!-- Start&#45;&gt;NotMember -->
<g id="edge1" class="edge">
<title>Start&#45;&gt;NotMember</title>
<path fill="none" stroke="black" d="M4.09,-104.45C7.48,-104.45 17.19,-104.45 29.04,-104.45"/>
<polygon fill="black" stroke="black" points="28.9,-107.95 38.9,-104.45 28.9,-100.95 28.9,-107.95"/>
</g>
<!-- Fenced -->
<g id="node3" class="node">
<title>Fenced</title>
<ellipse fill="none" stroke="black" cx="278.19" cy="-104.45" rx="36.29" ry="18"/>
<text text-anchor="middle" x="278.19" y="-100.75" font-family="Times,serif" font-size="14.00">Fenced</text>
</g>
<!-- NotMember&#45;&gt;Fenced -->
<g id="edge2" class="edge">
<title>NotMember&#45;&gt;Fenced</title>
<path fill="none" stroke="black" d="M150.01,-104.45C175.56,-104.45 205.8,-104.45 230.38,-104.45"/>
<polygon fill="black" stroke="black" points="230.08,-107.95 240.08,-104.45 230.08,-100.95 230.08,-107.95"/>
<text text-anchor="middle" x="195.79" y="-108.25" font-family="Times,serif" font-size="14.00">NewTerm</text>
</g>
<!-- Fenced&#45;&gt;Fenced -->
<g id="edge3" class="edge">
<title>Fenced&#45;&gt;Fenced</title>
<path fill="none" stroke="black" d="M263.7,-121.12C260.48,-131.08 265.31,-140.45 278.19,-140.45 285.83,-140.45 290.64,-137.15 292.61,-132.38"/>
<polygon fill="black" stroke="black" points="296.11,-132.65 292.66,-122.63 289.11,-132.61 296.11,-132.65"/>
<text text-anchor="middle" x="278.19" y="-144.25" font-family="Times,serif" font-size="14.00">NewTerm</text>
</g>
<!-- Follower -->
<g id="node4" class="node">
<title>Follower</title>
<ellipse fill="none" stroke="black" cx="475.83" cy="-135.45" rx="42.49" ry="18"/>
<text text-anchor="middle" x="475.83" y="-131.75" font-family="Times,serif" font-size="14.00">Follower</text>
</g>
<!-- Fenced&#45;&gt;Follower -->
<g id="edge4" class="edge">
<title>Fenced&#45;&gt;Follower</title>
<path fill="none" stroke="black" d="M286.48,-122.42C294.73,-140.09 310.04,-166.01 332.58,-177.45 365.48,-194.15 380.43,-188.65 415.58,-177.45 427.51,-173.65 439.1,-166.48 448.81,-159.13"/>
<polygon fill="black" stroke="black" points="450.73,-162.08 456.33,-153.08 446.34,-156.63 450.73,-162.08"/>
<text text-anchor="middle" x="374.08" y="-191.25" font-family="Times,serif" font-size="14.00">Replicate</text>
</g>
<!-- Fenced&#45;&gt;Follower -->
<g id="edge5" class="edge">
<title>Fenced&#45;&gt;Follower</title>
<path fill="none" stroke="black" d="M297.11,-120C306.89,-127.45 319.63,-135.58 332.58,-139.45 362.54,-148.4 397.65,-147.52 425.49,-144.34"/>
<polygon fill="black" stroke="black" points="425.57,-147.86 435.05,-143.12 424.68,-140.92 425.57,-147.86"/>
<text text-anchor="middle" x="374.08" y="-150.25" font-family="Times,serif" font-size="14.00">Truncate</text>
</g>
<!-- Fenced&#45;&gt;Follower -->
<g id="edge11" class="edge">
<title>Fenced&#45;&gt;Follower</title>
<path fill="none" stroke="black" d="M314.42,-107.3C342.07,-109.85 381.47,-114.16 415.58,-120.45 419.86,-121.24 424.29,-122.16 428.71,-123.15"/>
<polygon fill="black" stroke="black" points="427.59,-126.48 438.12,-125.38 429.2,-119.67 427.59,-126.48"/>
<text text-anchor="middle" x="374.08" y="-124.25" font-family="Times,serif" font-size="14.00">Snapshot</text>
</g>
<!-- Leader -->
<g id="node5" class="node">
<title>Leader</title>
<ellipse fill="none" stroke="black" cx="475.83" cy="-35.45" rx="35.19" ry="18"/>
<text text-anchor="middle" x="475.83" y="-31.75" font-family="Times,serif" font-size="14.00">Leader</text>
</g>
<!-- Fenced&#45;&gt;Leader -->
<g id="edge10" class="edge">
<title>Fenced&#45;&gt;Leader</title>
<path fill="none" stroke="black" d="M294.5,-88.15C304.44,-78.58 318.18,-67.08 332.58,-60.45 362.91,-46.48 400.17,-40.28 428.95,-37.55"/>
<polygon fill="black" stroke="black" points="429.14,-41.05 438.81,-36.73 428.56,-34.07 429.14,-41.05"/>
<text text-anchor="middle" x="374.08" y="-64.25" font-family="Times,serif" font-size="14.00">BecomeLeader</text>
</g>
<!-- Follower&#45;&gt;Fenced -->
<g id="edge6" class="edge">
<title>Follower&#45;&gt;Fenced</title>
<path fill="none" stroke="black" d="M460.19,-118.28C449.24,-106.84 433.17,-92.78 415.58,-86.45 383.98,-75.08 345.94,-81.63 318.07,-89.85"/>
<polygon fill="black" stroke="black" points="317.09,-86.48 308.62,-92.84 319.21,-93.16 317.09,-86.48"/>
<text text-anchor="middle" x="374.08" y="-90.25" font-family="Times,serif" font-size="14.00">NewTerm</text>
</g>
<!-- Follower&#45;&gt;Follower -->
<g id="edge9" class="edge">
<title>Follower&#45;&gt;Follower</title>
<path fill="none" stroke="black" d="M466.68,-153.23C465.13,-162.77 468.18,-171.45 475.83,-171.45 480.13,-171.45 482.98,-168.7 484.37,-164.6"/>
<polygon fill="black" stroke="black" points="487.86,-164.92 484.9,-154.74 480.87,-164.55 487.86,-164.92"/>
<text text-anchor="middle" x="475.83" y="-175.25" font-family="Times,serif" font-size="14.00">Replicate</text>
</g>
<!-- Follower&#45;&gt;Follower -->
<g id="edge12" class="edge">
<title>Follower&#45;&gt;Follower</title>
<path fill="none" stroke="black" d="M460.94,-152.59C452.19,-170.04 457.15,-189.45 475.83,-189.45 490.72,-189.45 496.89,-177.12 494.35,-163.29"/>
<polygon fill="black" stroke="black" points="497.74,-162.37 491.2,-154.03 491.11,-164.62 497.74,-162.37"/>
<text text-anchor="middle" x="475.83" y="-193.25" font-family="Times,serif" font-size="14.00">Snapshot</text>
</g>
<!-- Leader&#45;&gt;Fenced -->
<g id="edge7" class="edge">
<title>Leader&#45;&gt;Fenced</title>
<path fill="none" stroke="black" d="M451.23,-22.26C421.56,-7.61 369.97,11.31 332.58,-10.45 308.69,-24.36 294.61,-53.39 286.97,-75.53"/>
<polygon fill="black" stroke="black" points="283.67,-74.33 283.99,-84.92 290.35,-76.45 283.67,-74.33"/>
<text text-anchor="middle" x="374.08" y="-14.25" font-family="Times,serif" font-size="14.00">NewTerm</text>
</g>
<!-- Leader&#45;&gt;Leader -->
<g id="edge8" class="edge">
<title>Leader&#45;&gt;Leader</title>
<path fill="none" stroke="black" d="M458.26,-51.37C453.68,-61.6 459.53,-71.45 475.83,-71.45 485.76,-71.45 491.81,-67.79 493.99,-62.62"/>
<polygon fill="black" stroke="black" points="497.5,-62.68 493.48,-52.88 490.51,-63.05 497.5,-62.68"/>
<text text-anchor="middle" x="475.83" y="-75.25" font-family="Times,serif" font-size="14.00">AddFollower</text>
</g>
</g>
</svg>
