<?xml version="1.0" encoding="UTF-8" standalone="no"?>
<!DOCTYPE svg PUBLIC "-//W3C//DTD SVG 1.1//EN"
 "http://www.w3.org/Graphics/SVG/1.1/DTD/svg11.dtd">
<!-- Generated by graphviz version 7.0.1 (20221109.1506)
 -->
<!-- Title: StateDiagram Pages: 1 -->
<svg width="503pt" height="183pt"
 viewBox="0.00 0.00 503.08 182.55" xmlns="http://www.w3.org/2000/svg" xmlns:xlink="http://www.w3.org/1999/xlink">
<g id="graph0" class="graph" transform="scale(1 1) rotate(0) translate(4 178.55)">
<title>StateDiagram</title>
<polygon fill="white" stroke="none" points="-4,4 -4,-178.55 499.08,-178.55 499.08,4 -4,4"/>
<!-- Start -->
<g id="node1" class="node">
<title>Start</title>
<ellipse fill="black" stroke="black" cx="1.8" cy="-85.55" rx="1.8" ry="1.8"/>
</g>
<!-- NotMember -->
<g id="node2" class="node">
<title>NotMember</title>
<ellipse fill="none" stroke="black" cx="95.2" cy="-85.55" rx="54.69" ry="18"/>
<text text-anchor="middle" x="95.2" y="-81.85" font-family="Times,serif" font-size="14.00">NotMember</text>
</g>
<!-- Start&#45;&gt;NotMember -->
<g id="edge1" class="edge">
<title>Start&#45;&gt;NotMember</title>
<path fill="none" stroke="black" d="M4.09,-85.55C7.48,-85.55 17.19,-85.55 29.04,-85.55"/>
<polygon fill="black" stroke="black" points="28.9,-89.05 38.9,-85.55 28.9,-82.05 28.9,-89.05"/>
</g>
<!-- Fenced -->
<g id="node3" class="node">
<title>Fenced</title>
<ellipse fill="none" stroke="black" cx="255.19" cy="-85.55" rx="36.29" ry="18"/>
<text text-anchor="middle" x="255.19" y="-81.85" font-family="Times,serif" font-size="14.00">Fenced</text>
</g>
<!-- NotMember&#45;&gt;Fenced -->
<g id="edge2" class="edge">
<title>NotMember&#45;&gt;Fenced</title>
<path fill="none" stroke="black" d="M150.13,-85.55C168.75,-85.55 189.45,-85.55 207.45,-85.55"/>
<polygon fill="black" stroke="black" points="207.33,-89.05 217.33,-85.55 207.33,-82.05 207.33,-89.05"/>
<text text-anchor="middle" x="184.29" y="-89.35" font-family="Times,serif" font-size="14.00">Fence</text>
</g>
<!-- Fenced&#45;&gt;Fenced -->
<g id="edge3" class="edge">
<title>Fenced&#45;&gt;Fenced</title>
<path fill="none" stroke="black" d="M242.62,-102.59C240.06,-112.41 244.25,-121.55 255.19,-121.55 261.51,-121.55 265.58,-118.49 267.39,-114.02"/>
<polygon fill="black" stroke="black" points="270.89,-114.21 267.7,-104.1 263.89,-113.98 270.89,-114.21"/>
<text text-anchor="middle" x="255.19" y="-125.35" font-family="Times,serif" font-size="14.00">Fence</text>
</g>
<!-- Follower -->
<g id="node4" class="node">
<title>Follower</title>
<ellipse fill="none" stroke="black" cx="452.83" cy="-123.55" rx="42.49" ry="18"/>
<text text-anchor="middle" x="452.83" y="-119.85" font-family="Times,serif" font-size="14.00">Follower</text>
</g>
<!-- Fenced&#45;&gt;Follower -->
<g id="edge4" class="edge">
<title>Fenced&#45;&gt;Follower</title>
<path fill="none" stroke="black" d="M267.45,-102.78C276.95,-115.61 291.82,-132.13 309.58,-139.55 341.51,-152.88 380.78,-146.98 409.96,-138.82"/>
<polygon fill="black" stroke="black" points="410.6,-142.29 419.17,-136.06 408.58,-135.58 410.6,-142.29"/>
<text text-anchor="middle" x="351.08" y="-150.35" font-family="Times,serif" font-size="14.00">AddEntries</text>
</g>
<!-- Fenced&#45;&gt;Follower -->
<g id="edge5" class="edge">
<title>Fenced&#45;&gt;Follower</title>
<path fill="none" stroke="black" d="M286.21,-95.34C293.78,-97.59 301.94,-99.82 309.58,-101.55 339.34,-108.27 373.05,-113.59 400.19,-117.31"/>
<polygon fill="black" stroke="black" points="399.52,-120.75 409.89,-118.6 400.44,-113.81 399.52,-120.75"/>
<text text-anchor="middle" x="351.08" y="-119.35" font-family="Times,serif" font-size="14.00">Truncate</text>
</g>
<!-- Leader -->
<g id="node5" class="node">
<title>Leader</title>
<ellipse fill="none" stroke="black" cx="452.83" cy="-23.55" rx="35.19" ry="18"/>
<text text-anchor="middle" x="452.83" y="-19.85" font-family="Times,serif" font-size="14.00">Leader</text>
</g>
<!-- Fenced&#45;&gt;Leader -->
<g id="edge10" class="edge">
<title>Fenced&#45;&gt;Leader</title>
<path fill="none" stroke="black" d="M278.34,-71.19C287.68,-65.65 298.86,-59.67 309.58,-55.55 341.26,-43.39 378.76,-35.19 407.3,-30.14"/>
<polygon fill="black" stroke="black" points="407.78,-33.61 417.06,-28.48 406.61,-26.71 407.78,-33.61"/>
<text text-anchor="middle" x="351.08" y="-59.35" font-family="Times,serif" font-size="14.00">BecomeLeader</text>
</g>
<!-- Follower&#45;&gt;Fenced -->
<g id="edge6" class="edge">
<title>Follower&#45;&gt;Fenced</title>
<path fill="none" stroke="black" d="M434.18,-107.05C423.14,-97.89 408.11,-87.4 392.58,-82.55 362.91,-73.28 327.81,-74.31 300.65,-77.51"/>
<polygon fill="black" stroke="black" points="300.48,-74 291.03,-78.79 301.41,-80.94 300.48,-74"/>
<text text-anchor="middle" x="351.08" y="-86.35" font-family="Times,serif" font-size="14.00">Fence</text>
</g>
<!-- Follower&#45;&gt;Follower -->
<g id="edge9" class="edge">
<title>Follower&#45;&gt;Follower</title>
<path fill="none" stroke="black" d="M434.95,-140.21C430.97,-150.17 436.93,-159.55 452.83,-159.55 462.27,-159.55 468.21,-156.24 470.64,-151.47"/>
<polygon fill="black" stroke="black" points="474.14,-151.75 470.71,-141.73 467.14,-151.7 474.14,-151.75"/>
<text text-anchor="middle" x="452.83" y="-163.35" font-family="Times,serif" font-size="14.00">AddEntries</text>
</g>
<!-- Leader&#45;&gt;Fenced -->
<g id="edge7" class="edge">
<title>Leader&#45;&gt;Fenced</title>
<path fill="none" stroke="black" d="M424.2,-12.59C394.24,-2.55 345.84,8.14 309.58,-10.55 290.41,-20.44 276.61,-40.75 267.85,-57.74"/>
<polygon fill="black" stroke="black" points="264.86,-55.88 263.69,-66.41 271.17,-58.9 264.86,-55.88"/>
<text text-anchor="middle" x="351.08" y="-14.35" font-family="Times,serif" font-size="14.00">Fence</text>
</g>
<!-- Leader&#45;&gt;Leader -->
<g id="edge8" class="edge">
<title>Leader&#45;&gt;Leader</title>
<path fill="none" stroke="black" d="M435.26,-39.47C430.68,-49.7 436.53,-59.55 452.83,-59.55 462.76,-59.55 468.81,-55.89 470.99,-50.72"/>
<polygon fill="black" stroke="black" points="474.5,-50.78 470.48,-40.98 467.51,-51.15 474.5,-50.78"/>
<text text-anchor="middle" x="452.83" y="-63.35" font-family="Times,serif" font-size="14.00">AddFollower</text>
</g>
</g>
</svg>
